<svg width="84" height="84" viewBox="0 0 84 84" fill="none" xmlns="http://www.w3.org/2000/svg">
<path d="M48 36V6C48 4.4087 47.3679 2.88258 46.2426 1.75736C45.1174 0.632141 43.5913 0 42 0C40.4087 0 38.8826 0.632141 37.7574 1.75736C36.6321 2.88258 36 4.4087 36 6V36H6C4.4087 36 2.88258 36.6321 1.75736 37.7574C0.632141 38.8826 0 40.4087 0 42C0 43.5913 0.632141 45.1174 1.75736 46.2426C2.88258 47.3679 4.4087 48 6 48H36V78C36 79.5913 36.6321 81.1174 37.7574 82.2427C38.8826 83.3679 40.4087 84 42 84C43.5913 84 45.1174 83.3679 46.2426 82.2427C47.3679 81.1174 48 79.5913 48 78V48H78C79.5913 48 81.1174 47.3679 82.2426 46.2426C83.3679 45.1174 84 43.5913 84 42C84 40.4087 83.3679 38.8826 82.2426 37.7574C81.1174 36.6321 79.5913 36 78 36H48Z" fill="current"/>
</svg>
